<?xml version="1.0" standalone="no"?>
<!DOCTYPE svg PUBLIC "-//W3C//DTD SVG 20010904//EN"
 "http://www.w3.org/TR/2001/REC-SVG-20010904/DTD/svg10.dtd">
<svg version="1.0" xmlns="http://www.w3.org/2000/svg"
 width="260.000000pt" height="260.000000pt" viewBox="0 0 260.000000 260.000000"
 preserveAspectRatio="xMidYMid meet">
<metadata>
Created by potrace 1.14, written by Peter Selinger 2001-2017
</metadata>
<g transform="translate(0.000000,260.000000) scale(0.100000,-0.100000)"
fill="#000000" stroke="none">
<path d="M0 1789 l0 -811 23 6 c102 29 349 87 422 101 50 9 98 18 108 21 15 5
17 -3 17 -70 l0 -76 40 0 40 0 0 -80 0 -80 40 0 40 0 0 -40 c0 -40 0 -40 39
-40 35 0 39 -3 45 -31 3 -17 6 -51 6 -74 0 -38 -4 -46 -32 -63 -32 -19 -48
-20 -408 -17 l-375 3 320 -8 c176 -4 362 -8 413 -9 l92 -1 0 -180 0 -180 190
0 c183 0 190 1 190 20 0 13 7 20 20 20 17 0 20 7 20 40 0 33 -3 40 -20 40 -13
0 -20 7 -20 20 0 13 -7 20 -20 20 -13 0 -20 7 -20 20 0 18 -7 20 -60 20 l-60
0 0 77 0 76 107 -6 c58 -4 121 -7 140 -7 l33 0 0 -170 0 -170 190 0 c183 0
190 1 190 20 0 13 7 20 20 20 17 0 20 7 20 40 0 33 -3 40 -20 40 -13 0 -20 7
-20 20 0 13 -7 20 -20 20 -13 0 -20 7 -20 20 0 18 -7 20 -60 20 l-60 0 0 63 0
63 38 -3 c20 -1 107 -7 192 -13 237 -16 699 -60 795 -75 19 -3 25 -2 15 4 -8
4 -67 14 -130 20 -218 23 -515 50 -625 57 -157 10 -155 8 -94 79 108 128 126
212 64 305 -19 29 -35 54 -35 56 0 2 69 4 154 4 143 0 216 10 216 30 0 5 10
10 22 12 40 6 31 28 -24 53 -47 22 -66 25 -170 25 l-118 0 0 71 0 72 128 -7
c150 -8 357 -29 500 -51 56 -8 106 -15 112 -15 7 0 10 252 10 745 l0 745
-1300 0 -1300 0 0 -811z m1530 271 c0 -13 7 -20 20 -20 13 0 20 -7 20 -20 0
-17 -7 -20 -40 -20 -33 0 -40 3 -40 20 0 13 -7 20 -20 20 -13 0 -20 7 -20 20
0 17 7 20 40 20 33 0 40 -3 40 -20z m80 -120 c0 -17 7 -20 40 -20 33 0 40 -3
40 -20 0 -17 7 -20 40 -20 l40 0 0 -40 0 -40 40 0 c33 0 40 -3 40 -20 0 -17
-7 -20 -40 -20 -33 0 -40 3 -40 20 0 19 -7 20 -100 20 -93 0 -100 -1 -100 -20
0 -18 -7 -20 -80 -20 -73 0 -80 -2 -80 -20 0 -17 -7 -20 -40 -20 l-40 0 0 -60
c0 -53 2 -60 20 -60 13 0 20 -7 20 -20 0 -13 7 -20 20 -20 13 0 20 -7 20 -20
0 -13 7 -20 20 -20 13 0 20 -7 20 -20 0 -13 7 -20 20 -20 13 0 20 -7 20 -20 0
-17 7 -20 40 -20 33 0 40 -3 40 -20 0 -18 7 -20 85 -20 78 0 85 2 85 20 0 18
7 20 55 20 48 0 55 -2 55 -20 0 -17 -7 -20 -40 -20 l-40 0 0 -40 0 -40 -40 0
c-33 0 -40 -3 -40 -20 0 -17 -7 -20 -40 -20 -33 0 -40 -3 -40 -20 0 -17 7 -20
40 -20 33 0 40 -3 40 -20 0 -17 7 -20 40 -20 l40 0 0 -80 0 -80 -220 0 c-213
0 -220 1 -220 20 0 13 -7 20 -18 20 -10 0 -24 -9 -32 -20 -8 -12 -26 -20 -42
-20 l-28 0 0 120 0 120 -40 0 -40 0 0 -200 c0 -193 -1 -200 -20 -200 -13 0
-20 -7 -20 -20 0 -13 -7 -20 -20 -20 -13 0 -20 7 -20 20 0 13 -7 20 -20 20
-19 0 -20 7 -20 200 l0 200 -40 0 -40 0 0 -120 0 -120 -28 0 c-16 0 -34 8 -42
20 -8 11 -22 20 -32 20 -16 0 -18 -11 -18 -100 0 -89 2 -100 18 -100 10 0 24
9 32 20 20 27 70 27 70 0 0 -13 7 -20 20 -20 13 0 20 -7 20 -20 0 -13 7 -20
20 -20 13 0 20 -7 20 -20 0 -18 7 -20 60 -20 53 0 60 2 60 20 0 13 7 20 20 20
13 0 20 7 20 20 0 13 7 20 20 20 13 0 20 7 20 20 0 27 50 27 70 0 19 -26 50
-26 50 0 0 19 7 20 140 20 133 0 140 -1 140 -20 0 -13 -7 -20 -20 -20 -13 0
-20 -7 -20 -20 0 -17 -7 -20 -40 -20 -33 0 -40 -3 -40 -20 0 -13 -7 -20 -20
-20 -13 0 -20 -7 -20 -20 0 -17 -7 -20 -40 -20 -33 0 -40 -3 -40 -20 0 -18 7
-20 60 -20 53 0 60 2 60 20 0 13 7 20 20 20 13 0 20 7 20 20 0 17 7 20 40 20
33 0 40 3 40 20 0 13 7 20 20 20 17 0 20 7 20 40 0 33 3 40 20 40 18 0 20 -7
20 -60 l0 -60 39 0 40 0 3 48 3 47 28 -46 c52 -88 34 -166 -72 -293 l-55 -66
-58 0 -58 0 0 95 c0 95 0 95 25 95 18 0 25 5 25 20 0 17 -7 20 -40 20 -33 0
-40 -3 -40 -20 0 -17 -7 -20 -40 -20 -33 0 -40 -3 -40 -20 0 -18 -7 -20 -80
-20 -73 0 -80 -2 -80 -20 0 -13 7 -20 20 -20 17 0 20 -7 20 -45 0 -52 11 -50
-173 -38 l-107 6 0 39 c0 38 0 38 40 38 33 0 40 3 40 20 0 18 -7 20 -80 20
-73 0 -80 2 -80 20 0 17 -7 20 -40 20 -33 0 -40 3 -40 20 0 17 -7 20 -40 20
l-40 0 0 40 0 40 -40 0 -40 0 0 80 0 80 -40 0 -40 0 0 120 0 120 -40 0 c-40 0
-40 0 -40 -39 0 -46 9 -42 -148 -71 -93 -17 -117 -19 -130 -8 -93 71 -174 146
-187 175 -14 29 -15 40 -4 64 13 33 101 115 166 157 l42 27 1 73 0 72 230 0
230 0 0 -62 -1 -63 -87 -55 c-167 -105 -195 -150 -131 -205 47 -39 104 -65
144 -65 l35 0 0 80 0 80 40 0 40 0 0 40 0 40 40 0 40 0 0 40 0 40 40 0 c33 0
40 3 40 20 0 17 7 20 40 20 33 0 40 -3 40 -20 0 -17 7 -20 40 -20 l40 0 0 80
0 80 40 0 40 0 0 60 0 60 40 0 40 0 0 40 0 40 40 0 c33 0 40 3 40 20 0 17 7
20 40 20 33 0 40 3 40 20 0 18 7 20 80 20 73 0 80 -2 80 -20z m120 -200 c0
-18 7 -20 60 -20 53 0 60 -2 60 -20 0 -13 7 -20 20 -20 13 0 20 -7 20 -20 0
-17 7 -20 40 -20 l40 0 0 -40 0 -40 -40 0 c-33 0 -40 -3 -40 -20 0 -13 -7 -20
-20 -20 -13 0 -20 -7 -20 -20 0 -18 -7 -20 -60 -20 -53 0 -60 -2 -60 -20 0
-18 -7 -20 -60 -20 -53 0 -60 2 -60 20 0 17 -7 20 -40 20 -33 0 -40 3 -40 20
0 13 -7 20 -20 20 -13 0 -20 7 -20 20 0 13 -7 20 -20 20 -13 0 -20 7 -20 20 0
13 -7 20 -20 20 -13 0 -20 7 -20 20 0 13 -7 20 -20 20 -13 0 -20 7 -20 20 0
17 7 20 40 20 33 0 40 3 40 20 0 18 7 20 80 20 73 0 80 2 80 20 0 18 7 20 60
20 53 0 60 -2 60 -20z m360 -730 c0 -5 11 -12 25 -16 14 -3 25 -10 25 -14 0
-4 -11 -11 -25 -14 -14 -4 -25 -11 -25 -16 0 -6 -138 -10 -380 -10 l-380 0 0
40 0 40 380 0 c242 0 380 -4 380 -10z m-580 -530 c0 -113 -1 -120 -20 -120
-13 0 -20 -7 -20 -20 0 -19 7 -20 100 -20 93 0 100 -1 100 -20 0 -13 7 -20 20
-20 17 0 20 -7 20 -40 l0 -40 -170 0 -170 0 0 120 c0 113 1 120 20 120 17 0
20 7 20 40 0 33 3 40 20 40 13 0 20 7 20 20 0 13 7 20 20 20 13 0 20 7 20 20
0 11 5 20 10 20 6 0 10 -47 10 -120z m-690 65 c0 -9 -9 -15 -22 -15 -22 1 -23
1 -4 15 25 19 26 19 26 0z m190 -85 c0 -93 -1 -100 -20 -100 -13 0 -20 -7 -20
-20 0 -19 7 -20 100 -20 93 0 100 -1 100 -20 0 -13 7 -20 20 -20 17 0 20 -7
20 -40 l0 -40 -170 0 -170 0 0 120 c0 113 1 120 20 120 17 0 20 7 20 40 0 33
3 40 20 40 13 0 20 7 20 20 0 16 7 20 30 20 l30 0 0 -100z"/>
<path d="M1361 1854 c0 -11 3 -14 6 -6 3 7 2 16 -1 19 -3 4 -6 -2 -5 -13z"/>
<path d="M1451 1853 c-1 -20 -6 -23 -41 -23 l-40 0 0 -40 0 -40 -40 0 -40 0 0
-40 c0 -33 -3 -40 -19 -40 -16 0 -21 8 -24 38 l-4 37 1 -40 c1 -36 4 -40 26
-40 22 0 25 5 28 37 3 35 5 37 40 40 35 3 37 5 40 41 3 35 5 37 38 37 35 0 51
17 41 42 -3 7 -6 3 -6 -9z"/>
<path d="M1321 1814 c0 -11 3 -14 6 -6 3 7 2 16 -1 19 -3 4 -6 -2 -5 -13z"/>
<path d="M1281 1774 c0 -11 3 -14 6 -6 3 7 2 16 -1 19 -3 4 -6 -2 -5 -13z"/>
<path d="M1130 1460 l0 -60 40 0 40 0 0 -40 0 -40 40 0 c33 0 40 -3 40 -20 0
-17 7 -20 40 -20 33 0 40 -3 40 -20 0 -17 7 -20 40 -20 33 0 40 -3 40 -20 0
-18 7 -20 80 -20 73 0 80 2 80 20 0 18 -7 20 -80 20 -73 0 -80 2 -80 20 0 17
-7 20 -40 20 -33 0 -40 3 -40 20 0 17 -7 20 -40 20 l-40 0 0 40 0 40 -40 0
-40 0 0 60 0 60 -40 0 -40 0 0 -60z"/>
<path d="M963 1471 c-3 -12 -12 -21 -20 -21 -8 0 -17 -9 -20 -20 -3 -11 -12
-20 -20 -20 -8 0 -17 -9 -20 -19 -3 -11 -13 -21 -24 -24 -10 -3 -19 -12 -19
-20 0 -8 -9 -17 -20 -20 -15 -4 -20 -14 -20 -40 0 -26 -5 -36 -20 -40 -15 -4
-20 -14 -20 -40 0 -27 -5 -36 -21 -40 -15 -4 -20 -12 -17 -29 3 -20 9 -23 48
-23 45 0 45 0 48 36 2 27 9 38 23 42 14 4 19 14 19 41 0 26 4 36 16 36 9 0 18
9 21 19 3 11 13 21 24 24 10 3 19 12 19 20 0 8 9 17 20 20 11 3 20 12 20 20 0
8 9 17 21 20 17 5 20 12 17 49 -3 36 -7 44 -26 46 -17 3 -25 -2 -29 -17z m47
-31 c0 -33 -3 -40 -20 -40 -13 0 -20 -7 -20 -20 0 -13 -7 -20 -20 -20 -13 0
-20 -7 -20 -20 0 -13 -7 -20 -20 -20 -13 0 -20 -7 -20 -20 0 -13 -7 -20 -20
-20 -17 0 -20 -7 -20 -40 0 -33 -3 -40 -20 -40 -17 0 -20 -7 -20 -40 l0 -40
-40 0 c-33 0 -40 3 -40 20 0 13 7 20 20 20 17 0 20 7 20 40 0 33 3 40 20 40
17 0 20 7 20 40 0 33 3 40 20 40 13 0 20 7 20 20 0 13 7 20 20 20 13 0 20 7
20 20 0 13 7 20 20 20 13 0 20 7 20 20 0 13 7 20 20 20 13 0 20 7 20 20 0 13
7 20 20 20 17 0 20 -7 20 -40z"/>
<path d="M1610 760 l0 -40 40 0 40 0 0 40 0 40 -40 0 -40 0 0 -40z"/>
<path d="M1130 580 c0 -18 7 -20 80 -20 73 0 80 2 80 20 0 18 -7 20 -80 20
-73 0 -80 -2 -80 -20z"/>
<path d="M1650 1600 c0 -113 1 -120 20 -120 19 0 20 7 20 120 0 113 -1 120
-20 120 -19 0 -20 -7 -20 -120z"/>
<path d="M1570 1600 c0 -73 2 -80 20 -80 18 0 20 7 20 80 0 73 -2 80 -20 80
-18 0 -20 -7 -20 -80z"/>
<path d="M1730 1600 c0 -73 2 -80 20 -80 18 0 20 7 20 80 0 73 -2 80 -20 80
-18 0 -20 -7 -20 -80z"/>
<path d="M1810 1600 c0 -73 2 -80 20 -80 18 0 20 7 20 80 0 73 -2 80 -20 80
-18 0 -20 -7 -20 -80z"/>
</g>
</svg>
